<svg width="63" height="63" viewBox="0 0 63 63" fill="none" xmlns="http://www.w3.org/2000/svg">
<circle cx="31" cy="31" r="30" fill="#D0D0D0"/>
<circle cx="31.4618" cy="31.4618" r="29.1923" stroke="black" stroke-width="3"/>
<mask id="mask0_579_3797" style="mask-type:alpha" maskUnits="userSpaceOnUse" x="0" y="0" width="63" height="63">
<circle cx="31.4618" cy="31.4618" r="29.1923" fill="black" stroke="black" stroke-width="3"/>
</mask>
<g mask="url(#mask0_579_3797)">
<path d="M70.7218 11.053C70.8465 10.2822 70.3481 9.61146 69.7521 9.0989C69.1255 8.56005 68.2172 8.04111 67.1228 7.5602C64.9255 6.59463 61.8478 5.72633 58.4065 5.16966C54.9651 4.61299 51.7707 4.46672 49.381 4.6903C48.1908 4.80166 47.1652 5.00779 46.4007 5.3216C45.6734 5.62011 44.989 6.0995 44.8644 6.87028C44.7397 7.64106 45.238 8.31177 45.8341 8.82434C46.4607 9.36318 47.369 9.88213 48.4634 10.363C50.6607 11.3286 53.7384 12.1969 57.1797 12.7536C60.621 13.3102 63.8155 13.4565 66.2052 13.2329C67.3954 13.1216 68.421 12.9154 69.1855 12.6016C69.9127 12.3031 70.5971 11.8237 70.7218 11.053Z" fill="black" stroke="black" stroke-width="1.20405"/>
<path d="M21.8339 23.4468C21.8339 23.4468 18.5288 27.4243 32.2892 33.0451C32.2892 33.0451 38.5429 34.682 44.8573 34.1747L49.5633 35.0798L48.9492 37.3183L57.2397 39.8364C58.647 40.2639 60.1424 39.5143 60.6428 38.1319L61.2971 36.3225C61.2971 36.3225 62.6606 35.9771 63.7104 32.9536C63.7104 32.9536 47.8267 37.5096 41.3922 21.8208L39.1695 23.3379L36.4758 24.2237C36.4758 24.2237 23.2539 20.929 21.8341 23.4476L21.8339 23.4468Z" stroke="black" stroke-width="1.68978" stroke-miterlimit="10" stroke-linejoin="round"/>
<path d="M38.7066 23.4164C38.7066 23.4164 38.3235 25.0689 38.6041 27.4924C38.6714 28.0734 39.0429 28.5392 39.465 28.5879C41.195 28.7855 45.6414 29.7447 47.4048 34.3922" stroke="black" stroke-width="1.68978" stroke-miterlimit="10" stroke-linejoin="round"/>
<path d="M49.5645 35.0762C49.5645 35.0762 57.9053 38.647 61.2983 36.3189" stroke="black" stroke-width="1.68978" stroke-miterlimit="10" stroke-linejoin="round"/>
<path d="M41.3922 21.819C41.3922 21.819 42.8524 20.0272 45.5587 18.8536C45.5587 18.8536 44.5346 10.0011 45.5925 6.87077" stroke="black" stroke-width="1.68978" stroke-miterlimit="10" stroke-linejoin="round"/>
<path d="M63.7107 32.9527V32.9527C63.7107 32.9527 67.8104 22.4419 69.0754 17.3817C69.5102 15.6427 69.8836 13.5238 70.1221 10.952" stroke="black" stroke-width="1.68978" stroke-miterlimit="10" stroke-linejoin="round"/>
<path d="M45.2953 46.4875L46.4175 44.5585L30.6869 43.0084C30.6869 43.0084 26.1228 42.9807 25.8406 40.1468C25.8406 40.1468 27.5519 38.3794 27.3965 37.4676L30.7188 36.9014L30.7545 35.0997C29.5496 35.3447 26.7045 35.7723 26.7045 35.7723C26.7045 35.7723 23.4138 36.1339 22.5799 36.7463C22.5799 36.7463 21.0247 37.4808 22.1287 32.531C22.1287 32.531 23.3301 30.1817 21.9775 27.7287C21.9775 27.7287 20.0606 28.2577 19.3232 31.8021C18.5861 35.348 17.9345 38.2082 19.3144 38.4434C20.6956 38.6767 21.9464 38.7323 21.9464 38.7323C21.9464 38.7323 19.2774 39.8718 13.1129 43.8296C6.94573 47.7856 3.61696 49.4724 3.68188 52.6128C3.68188 52.6128 8.28873 51.8786 10.3792 49.9801C12.4698 48.0817 17.2279 45.843 19.3232 45.1507C21.3505 44.4808 22.9597 43.2516 23.4551 41.0959C23.2797 42.132 22.0501 45.6637 29.6968 46.4875C38.3726 47.423 41.539 47.262 41.539 47.262L45.2953 46.4875Z" stroke="black" stroke-width="1.68978" stroke-miterlimit="10" stroke-linecap="round" stroke-linejoin="round"/>
<path d="M36.4769 24.2232C36.4769 24.2232 34.7007 25.2375 35.1314 27.3705" stroke="black" stroke-width="1.68978" stroke-miterlimit="10" stroke-linecap="round" stroke-linejoin="round"/>
<path d="M25.8415 40.1447C25.8415 40.1447 26.5472 40.3377 27.371 40.3666C29.0473 40.4256 30.326 39.0165 31.6473 37.9834V37.9834" stroke="black" stroke-width="1.68978" stroke-miterlimit="10" stroke-linejoin="round"/>
<path d="M32.2676 37.9656L38.8193 34.4469L35.2711 33.6874L31.22 35.317" stroke="black" stroke-width="1.68978" stroke-miterlimit="10" stroke-linejoin="round"/>
<mask id="path-14-inside-1_579_3797" fill="white">
<path d="M46.0241 18.4156C46.0241 18.4156 46.0241 18.4156 46.0241 18.4157C46.0245 18.4166 47.9445 23.7493 46.2418 23.2319C45.2538 22.9315 45.3999 19.6844 45.4527 18.8665C45.4602 18.7508 45.5304 18.6496 45.6351 18.5999L46.0234 18.4152C46.0237 18.4151 46.0241 18.4153 46.0241 18.4156Z"/>
</mask>
<path d="M46.0241 18.4156C46.0241 18.4156 46.0241 18.4156 46.0241 18.4157C46.0245 18.4166 47.9445 23.7493 46.2418 23.2319C45.2538 22.9315 45.3999 19.6844 45.4527 18.8665C45.4602 18.7508 45.5304 18.6496 45.6351 18.5999L46.0234 18.4152C46.0237 18.4151 46.0241 18.4153 46.0241 18.4156Z" fill="black"/>
<path d="M46.2418 23.2319L46.1964 23.3812L46.1964 23.3812L46.2418 23.2319ZM46.0234 18.4152L45.9563 18.2743L46.0234 18.4152ZM46.0241 18.4157L45.8773 18.4685L46.0241 18.4157ZM45.8773 18.4685C45.8772 18.4682 46.3541 19.793 46.6189 21.0503C46.7523 21.6836 46.827 22.2783 46.7716 22.6763C46.7436 22.877 46.6866 22.9968 46.6188 23.0559C46.5618 23.1055 46.4675 23.1373 46.2872 23.0825L46.1964 23.3812C46.4417 23.4557 46.6599 23.4341 46.8239 23.2912C46.977 23.1577 47.0492 22.9457 47.0808 22.7193C47.1443 22.2629 47.0582 21.6214 46.9243 20.986C46.6547 19.7061 46.1714 18.364 46.171 18.3628L45.8773 18.4685ZM46.2872 23.0825C46.1172 23.0309 45.9634 22.8385 45.8418 22.487C45.7236 22.1457 45.6522 21.701 45.6125 21.2301C45.5331 20.2904 45.5822 19.2834 45.6085 18.8765L45.297 18.8564C45.2704 19.2675 45.22 20.293 45.3014 21.2564C45.342 21.7371 45.4161 22.2116 45.5468 22.5891C45.6739 22.9565 45.8724 23.2827 46.1964 23.3812L46.2872 23.0825ZM45.7021 18.7408L46.0904 18.5562L45.9563 18.2743L45.5681 18.4589L45.7021 18.7408ZM46.0904 18.5562C45.9972 18.6005 45.8876 18.5435 45.8703 18.4418L46.178 18.3894C46.1605 18.287 46.0501 18.2297 45.9563 18.2743L46.0904 18.5562ZM45.6085 18.8765C45.6122 18.8188 45.6472 18.7669 45.7021 18.7408L45.5681 18.4589C45.4137 18.5324 45.3082 18.6827 45.297 18.8564L45.6085 18.8765ZM46.171 18.3628C46.1713 18.3637 46.1719 18.3655 46.1726 18.3676C46.1733 18.3697 46.1744 18.3733 46.1755 18.3778C46.1767 18.3826 46.1781 18.3888 46.179 18.3963C46.18 18.4041 46.1802 18.4107 46.1802 18.4154C46.1802 18.4174 46.1802 18.419 46.1802 18.4193C46.1801 18.42 46.1802 18.4189 46.1802 18.4182C46.1802 18.4159 46.1802 18.4125 46.18 18.4084C46.1797 18.4003 46.1787 18.3938 46.178 18.3894L45.8703 18.4418C45.8695 18.4375 45.8686 18.4309 45.8682 18.4229C45.868 18.4188 45.868 18.4153 45.8681 18.413C45.8681 18.4123 45.8681 18.4113 45.8681 18.412C45.8681 18.4123 45.868 18.4138 45.868 18.4158C45.8681 18.4206 45.8683 18.4272 45.8693 18.435C45.8702 18.4424 45.8715 18.4487 45.8727 18.4535C45.8738 18.458 45.8749 18.4616 45.8756 18.4637C45.8763 18.4658 45.8769 18.4676 45.8773 18.4685L46.171 18.3628Z" fill="black" mask="url(#path-14-inside-1_579_3797)"/>
<path d="M22.1275 38.7449C22.1275 38.7449 23.045 36.4547 24.2876 36.2154" stroke="black" stroke-width="1.56073" stroke-miterlimit="10"/>
<path d="M27.7126 43.7808C27.9724 43.8584 28.1901 43.9745 28.3323 44.0962C28.4035 44.1571 28.4529 44.217 28.4805 44.2712C28.5079 44.325 28.5119 44.3688 28.5015 44.4038C28.491 44.4389 28.4636 44.4733 28.4112 44.5032C28.3584 44.5334 28.2842 44.5564 28.1913 44.5683C28.0057 44.5921 27.76 44.5699 27.5001 44.4922C27.2402 44.4146 27.0225 44.2985 26.8803 44.1768C26.8091 44.1159 26.7597 44.056 26.7321 44.0018C26.7047 43.948 26.7007 43.9042 26.7112 43.8692C26.7216 43.8341 26.749 43.7997 26.8014 43.7698C26.8542 43.7396 26.9284 43.7166 27.0213 43.7047C27.207 43.6808 27.4527 43.7031 27.7126 43.7808Z" fill="black" stroke="black" stroke-width="0.156073"/>
<path d="M20.133 34.2799C20.1695 34.2779 20.2111 34.292 20.257 34.3312C20.3033 34.3707 20.35 34.4327 20.3927 34.5161C20.4779 34.6828 20.54 34.9215 20.5549 35.1923C20.5697 35.4632 20.5341 35.7073 20.4677 35.8823C20.4344 35.9699 20.3948 36.0366 20.3531 36.081C20.3117 36.1249 20.2719 36.1435 20.2354 36.1455C20.1988 36.1475 20.1572 36.1334 20.1113 36.0942C20.065 36.0547 20.0183 35.9927 19.9757 35.9093C19.8905 35.7426 19.8283 35.5039 19.8135 35.233C19.7986 34.9622 19.8342 34.7181 19.9007 34.5431C19.9339 34.4555 19.9736 34.3888 20.0153 34.3444C20.0566 34.3005 20.0964 34.2819 20.133 34.2799Z" fill="black" stroke="black" stroke-width="0.156073"/>
<path d="M39.2721 45.3769C39.6479 45.4167 39.9783 45.5122 40.2082 45.6315C40.3234 45.6913 40.4097 45.7552 40.4644 45.8177C40.519 45.8802 40.537 45.9349 40.5321 45.981C40.5272 46.0271 40.4981 46.0769 40.4316 46.1265C40.3651 46.1762 40.2673 46.2205 40.1422 46.2549C39.8923 46.3234 39.5493 46.3475 39.1735 46.3076C38.7977 46.2678 38.4673 46.1724 38.2373 46.053C38.1221 45.9932 38.0359 45.9294 37.9812 45.8668C37.9266 45.8044 37.9086 45.7497 37.9135 45.7035C37.9183 45.6574 37.9474 45.6077 38.0139 45.5581C38.0805 45.5084 38.1782 45.464 38.3034 45.4297C38.5532 45.3612 38.8963 45.3371 39.2721 45.3769Z" fill="black" stroke="black" stroke-width="0.156073"/>
<path d="M34.8332 45.6081C35.0203 45.6276 35.183 45.6748 35.2945 45.7325C35.3505 45.7614 35.3898 45.7911 35.4133 45.8179C35.4368 45.8446 35.4394 45.8622 35.4385 45.8713C35.4375 45.8805 35.4313 45.8971 35.4028 45.9184C35.3743 45.9398 35.3297 45.9607 35.2689 45.9775C35.1479 46.0108 34.9789 46.0233 34.7918 46.0038C34.6047 45.9842 34.4419 45.937 34.3304 45.8794C34.2745 45.8504 34.2352 45.8207 34.2116 45.7939C34.1882 45.7672 34.1855 45.7496 34.1865 45.7405C34.1874 45.7313 34.1937 45.7147 34.2221 45.6934C34.2507 45.672 34.2953 45.6511 34.3561 45.6344C34.4771 45.601 34.646 45.5885 34.8332 45.6081Z" fill="black" stroke="black" stroke-width="0.156073"/>
<path d="M31.2703 44.2966C31.4574 44.3165 31.62 44.3639 31.7314 44.4217C31.7874 44.4507 31.8266 44.4804 31.8501 44.5073C31.8735 44.5341 31.8762 44.5516 31.8752 44.5608C31.8742 44.5699 31.868 44.5865 31.8395 44.6078C31.8109 44.6291 31.7663 44.65 31.7055 44.6666C31.5844 44.6998 31.4154 44.7121 31.2283 44.6923C31.0412 44.6724 30.8786 44.625 30.7671 44.5672C30.7112 44.5382 30.672 44.5085 30.6485 44.4816C30.625 44.4548 30.6224 44.4373 30.6234 44.4281C30.6244 44.4189 30.6306 44.4024 30.6591 44.3811C30.6877 44.3597 30.7323 44.3389 30.7931 44.3222C30.9142 44.2891 31.0832 44.2768 31.2703 44.2966Z" fill="black" stroke="black" stroke-width="0.156073"/>
<path d="M21.0823 30.983C21.0915 30.9839 21.1081 30.9902 21.1293 31.0187C21.1507 31.0473 21.1715 31.0919 21.1882 31.1527C21.2214 31.2737 21.2336 31.4427 21.2138 31.6298C21.194 31.8169 21.1466 31.9796 21.0888 32.091C21.0597 32.147 21.03 32.1862 21.0031 32.2097C20.9764 32.2331 20.9588 32.2358 20.9497 32.2348C20.9405 32.2338 20.9239 32.2276 20.9026 32.1991C20.8813 32.1705 20.8604 32.1258 20.8438 32.0651C20.8106 31.944 20.7983 31.775 20.8182 31.5879C20.838 31.4008 20.8854 31.2381 20.9432 31.1267C20.9722 31.0708 21.002 31.0315 21.0288 31.008C21.0556 30.9846 21.0731 30.982 21.0823 30.983Z" fill="black" stroke="black" stroke-width="0.156073"/>
<path d="M29.3299 38.5998C29.3319 38.6088 29.3313 38.6265 29.3112 38.6559C29.291 38.6853 29.2555 38.7194 29.2033 38.7548C29.0995 38.8252 28.9434 38.8913 28.7599 38.9329C28.5764 38.9744 28.4072 38.982 28.2831 38.9632C28.2208 38.9538 28.174 38.9383 28.1431 38.9204C28.1123 38.9026 28.1042 38.8869 28.1021 38.8779C28.1001 38.8689 28.1007 38.8512 28.1208 38.8218C28.141 38.7924 28.1765 38.7583 28.2286 38.7229C28.3325 38.6525 28.4886 38.5864 28.6721 38.5448C28.8556 38.5033 29.0248 38.4957 29.1489 38.5145C29.2112 38.5239 29.258 38.5394 29.2889 38.5573C29.3197 38.5751 29.3278 38.5908 29.3299 38.5998Z" fill="black" stroke="black" stroke-width="0.156073"/>
<path d="M35.4773 34.8343C35.5001 34.8865 35.4835 34.9751 35.3857 35.0887C35.292 35.1976 35.1394 35.3087 34.9489 35.3921C34.7585 35.4755 34.5732 35.5122 34.4297 35.5072C34.2799 35.502 34.2036 35.4542 34.1807 35.402C34.1579 35.3498 34.1745 35.2613 34.2723 35.1477C34.366 35.0388 34.5186 34.9276 34.7091 34.8443C34.8995 34.7609 35.0847 34.7241 35.2283 34.7291C35.3781 34.7343 35.4544 34.7822 35.4773 34.8343Z" fill="black" stroke="black" stroke-width="0.156073"/>
<path d="M18.9703 38.5255L21.6689 36.741" stroke="black" stroke-width="1.56073" stroke-miterlimit="10"/>
<path d="M21.7039 28.4975C21.7438 28.8229 21.8844 29.1613 22.0473 29.3265C22.2074 29.4888 22.3323 29.6916 22.4043 29.9272L21.7039 28.4975ZM21.7039 28.4975C21.6841 28.3361 21.6901 28.1854 21.726 28.0667M21.7039 28.4975L21.726 28.0667M21.726 28.0667C21.7616 27.949 21.8238 27.8698 21.9136 27.8334M21.726 28.0667L21.9136 27.8334M21.9136 27.8334C21.9634 27.8131 21.9804 27.8174 21.9823 27.8181C21.9823 27.8181 21.9823 27.8181 21.9823 27.8181C21.9826 27.8182 21.9835 27.8184 21.9856 27.8209C21.9886 27.8242 21.9931 27.8307 21.9986 27.8432C22.0088 27.8662 22.0169 27.8956 22.0283 27.9363C22.0301 27.9432 22.0321 27.9503 22.0342 27.9578C22.048 28.0069 22.0654 28.0655 22.0931 28.1258C22.4058 28.8075 22.517 29.4406 22.5474 29.9189C22.5502 29.9638 22.5402 29.9908 22.5305 30.0051M21.9136 27.8334L22.5305 30.0051M22.5305 30.0051C22.5211 30.0188 22.51 30.0242 22.4996 30.0254M22.5305 30.0051L22.4996 30.0254M22.4996 30.0254C22.481 30.0275 22.4311 30.0147 22.4043 29.9272L22.4996 30.0254Z" fill="black" stroke="black" stroke-width="0.156073"/>
<path d="M59.6109 17.9977L59.6109 17.9977L59.6869 16.2441C59.6869 16.2441 59.6869 16.2441 59.6869 16.2441C59.6959 16.0416 59.9647 15.9771 60.0647 16.1533L60.0647 16.1533L60.2971 16.5626C60.8176 17.4795 61.5315 18.2724 62.39 18.8855C62.39 18.8855 62.39 18.8855 62.39 18.8855L63.6739 19.8026C63.6739 19.8026 63.6739 19.8027 63.674 19.8027C63.8616 19.9372 63.7135 20.2304 63.494 20.1594L63.494 20.1594L60.4237 19.1672C60.4237 19.1672 60.4237 19.1672 60.4237 19.1672C59.9206 19.0045 59.5877 18.5257 59.6109 17.9977Z" fill="black" stroke="black" stroke-width="0.156073"/>
<path d="M62.2315 27.8133C61.9603 28.1931 62.0482 28.7207 62.4279 28.9919C62.8077 29.2631 63.3353 29.1752 63.6065 28.7954L62.2315 27.8133ZM63.6065 28.7954L66.0955 25.3106L64.7204 24.3285L62.2315 27.8133L63.6065 28.7954Z" fill="black"/>
<path d="M26.5996 26.9531C26.5996 26.9531 31.1754 30.4632 36.0445 31.0129" stroke="black" stroke-width="1.68978" stroke-miterlimit="10" stroke-linecap="round" stroke-linejoin="round"/>
<path d="M31.7007 39.2093C32.2262 39.2093 32.6827 38.8956 33.0003 38.428C33.3185 37.9595 33.5099 37.3218 33.5099 36.6256C33.5099 35.9295 33.3185 35.2917 33.0003 34.8232C32.6827 34.3557 32.2262 34.042 31.7007 34.042C31.1752 34.042 30.7188 34.3557 30.4012 34.8232C30.0829 35.2917 29.8916 35.9295 29.8916 36.6256C29.8916 37.3218 30.0829 37.9595 30.4012 38.428C30.7188 38.8956 31.1752 39.2093 31.7007 39.2093Z" fill="black" stroke="black" stroke-width="0.337955"/>
</g>
</svg>
