<svg width="98" height="24" viewBox="0 0 98 24" fill="none" xmlns="http://www.w3.org/2000/svg">
<mask id="mask0_2_736" style="mask-type:luminance" maskUnits="userSpaceOnUse" x="0" y="0" width="98" height="24">
<path d="M97.1829 0.305328H0.120819V23.7057H97.1829V0.305328Z" fill="white"/>
</mask>
<g mask="url(#mask0_2_736)">
<path d="M97.1829 13.1309V9.64129C97.1829 9.32538 96.9273 9.06766 96.6093 9.06766H93.5686V5.576C93.5686 5.26008 93.313 5.00237 92.995 5.00237H88.3789C88.063 5.00237 87.8053 5.258 87.8053 5.576V5.99998C87.8053 7.69386 86.4315 9.06558 84.7397 9.06558H84.4321C84.1162 9.06558 83.8585 9.32122 83.8585 9.63921V13.1288C83.8585 13.4447 84.1141 13.7024 84.4321 13.7024H86.949V20.4135C86.949 21.962 88.2023 23.2173 89.7506 23.2215L96.6051 23.236C96.921 23.236 97.1787 22.9804 97.1787 22.6645V19.1769C97.1787 18.861 96.9231 18.6032 96.6051 18.6032H93.5645V13.7066H96.6051C96.921 13.7066 97.1787 13.451 97.1787 13.133L97.1829 13.1309Z" fill="black"/>
<path d="M82.7798 18.6011V5.57804C82.7798 5.26213 82.5242 5.00441 82.2062 5.00441H76.4802C76.1643 5.00441 75.9066 5.26005 75.9066 5.57804V20.4135C75.9066 21.9618 77.1599 23.2171 78.7083 23.2213L85.702 23.2358C86.0179 23.2358 86.2756 22.9802 86.2756 22.6643V19.1768C86.2756 18.8609 86.02 18.6032 85.702 18.6032H82.7777L82.7798 18.6011Z" fill="black"/>
<path d="M57.8227 23.236H53.9548C53.6389 23.236 53.3833 22.9804 53.3833 22.6624V21.6648H53.3272C52.4459 23.0697 50.7105 23.7036 49.0582 23.7036C44.8723 23.7036 41.9252 20.2057 41.9252 16.157C41.9252 12.1084 44.8162 8.63748 49.0041 8.63748C50.6294 8.63748 52.3358 9.24437 53.3833 10.4831V9.67875C53.3833 9.36283 53.6389 9.10512 53.9548 9.10512H57.8227C58.1386 9.10512 58.3963 9.36075 58.3963 9.67875V22.6624C58.3963 22.9783 58.1407 23.236 57.8227 23.236ZM48.098 16.182C48.098 17.4207 48.9168 18.3726 50.326 18.3726C51.7351 18.3726 52.554 17.4207 52.554 16.182C52.554 14.9433 51.7351 13.9727 50.326 13.9727C48.9168 13.9727 48.098 14.9828 48.098 16.182Z" fill="black"/>
<path d="M9.41112 9.86996V16.3295C9.41112 16.9052 8.96219 17.3978 8.38648 17.4186C7.78167 17.4394 7.28494 16.9551 7.28494 16.3566V9.87203C7.28494 9.55612 7.0293 9.2984 6.71131 9.2984H1.21609C0.900174 9.2984 0.642456 9.55404 0.642456 9.87203V18.1543C0.642456 21.089 2.90789 23.4667 5.70122 23.4667C7.58423 23.4667 9.22614 22.386 10.097 20.7835V22.6645C10.097 22.9804 10.3526 23.2381 10.6706 23.2381H15.4779C15.7938 23.2381 16.0515 22.9825 16.0515 22.6645V9.86996C16.0515 9.55404 15.7959 9.29633 15.4779 9.29633H9.98475C9.66883 9.29633 9.41112 9.55197 9.41112 9.86996Z" fill="black"/>
<path d="M67.9631 9.86996V16.3295C67.9631 16.9052 67.5141 17.3978 66.9384 17.4186C66.3336 17.4394 65.8369 16.9551 65.8369 16.3566V9.87203C65.8369 9.55612 65.5812 9.2984 65.2632 9.2984H59.768C59.4521 9.2984 59.1965 9.55404 59.1965 9.87203V18.1543C59.1965 21.089 61.4619 23.4667 64.2552 23.4667C66.1382 23.4667 67.7802 22.386 68.651 20.7835V22.6645C68.651 22.9804 68.9066 23.2381 69.2225 23.2381H74.0298C74.3457 23.2381 74.6034 22.9825 74.6034 22.6645V9.86996C74.6034 9.55404 74.3478 9.29633 74.0298 9.29633H68.5367C68.2208 9.29633 67.9631 9.55197 67.9631 9.86996Z" fill="black"/>
<path d="M36.2346 9.06981C34.4181 9.06981 32.8282 10.0737 31.9345 11.5826C31.0428 10.0737 29.4508 9.06981 27.6343 9.06981C25.8178 9.06981 24.1094 10.1506 23.2386 11.753V9.87206C23.2386 9.55615 22.9829 9.29843 22.6649 9.29843H17.8576C17.5417 9.29843 17.2839 9.55407 17.2839 9.87206V22.6665C17.2839 22.9825 17.5396 23.2402 17.8576 23.2402H23.5108C23.8267 23.2402 24.0824 22.9845 24.0824 22.6665V16.1487C24.0824 15.573 24.5313 15.0805 25.107 15.0597C25.7118 15.0389 26.2086 15.5232 26.2086 16.1238V22.6665C26.2086 22.9825 26.4642 23.2402 26.7822 23.2402H31.7703C32.0862 23.2402 32.3418 22.9845 32.3418 22.6665V16.1487C32.3418 15.5585 32.824 15.0534 33.4143 15.0597C33.6491 15.0597 33.8674 15.1407 34.0419 15.2717C34.1666 15.3548 34.2685 15.4691 34.3329 15.6063C34.4181 15.7601 34.468 15.9368 34.468 16.1238V22.6665C34.468 22.9825 34.7236 23.2402 35.0416 23.2402H40.7177C41.0336 23.2402 41.2913 22.9845 41.2913 22.6665V14.3842C41.2913 11.4516 39.0259 9.07189 36.2325 9.07189L36.2346 9.06981Z" fill="black"/>
<path d="M7.82535 4.15863C7.82535 2.03038 6.1003 0.305328 3.97412 0.305328C1.84795 0.305328 0.120819 2.03038 0.120819 4.15863C0.120819 6.28688 1.84587 8.01193 3.97412 8.01193C6.10238 8.01193 7.82743 6.28688 7.82743 4.15863H7.82535Z" fill="black"/>
<path d="M16.6543 4.15863C16.6543 2.03038 14.9293 0.305328 12.801 0.305328C10.6728 0.305328 8.94772 2.03038 8.94772 4.15863C8.94772 6.28688 10.6728 8.01193 12.801 8.01193C14.9293 8.01193 16.6543 6.28688 16.6543 4.15863Z" fill="black"/>
</g>
</svg>
