<svg width="275" height="275" viewBox="0 0 275 275" fill="none" xmlns="http://www.w3.org/2000/svg">
<ellipse cx="137.502" cy="137.598" rx="136.848" ry="137.396" fill="#3055FF"/>
<path d="M70.4409 201.314L172.746 54.8659H204.337L101.823 201.314H70.4409ZM49.9381 89.386C49.9381 65.5358 66.8843 51.937 87.3871 51.937C107.89 51.937 124.836 65.5358 124.836 89.386C124.836 113.027 107.89 126.626 87.3871 126.626C66.8843 126.626 49.9381 113.027 49.9381 89.386ZM74.8344 89.386C74.8344 100.893 80.2739 106.123 87.3871 106.123C94.5003 106.123 99.7306 100.893 99.7306 89.386C99.7306 77.8793 94.5003 72.4398 87.3871 72.4398C80.2739 72.4398 74.8344 77.8793 74.8344 89.386ZM149.942 167.004C149.942 143.153 166.679 129.555 187.181 129.555C207.893 129.555 224.63 143.153 224.63 167.004C224.63 190.645 207.893 204.243 187.181 204.243C166.679 204.243 149.942 190.645 149.942 167.004ZM174.838 167.004C174.838 178.51 180.277 183.741 187.181 183.741C194.504 183.741 199.734 178.929 199.734 167.004C199.734 155.497 194.295 150.057 187.181 150.057C180.277 150.057 174.838 155.497 174.838 167.004Z" fill="black"/>
</svg>
