<svg width="63" height="63" viewBox="0 0 63 63" fill="none" xmlns="http://www.w3.org/2000/svg">
<circle cx="31" cy="31" r="30" fill="#EDEDED"/>
<circle cx="31.4616" cy="31.4618" r="29.1923" stroke="black" stroke-width="3"/>
<path d="M32.7344 27.199V38.1392C32.7344 39.1142 31.9741 39.9485 30.999 39.9837C29.9747 40.0189 29.1334 39.1987 29.1334 38.185V27.2026C29.1334 26.6675 28.7005 26.231 28.1619 26.231H18.855C18.32 26.231 17.8835 26.664 17.8835 27.2026V41.2298C17.8835 46.2 21.7203 50.2269 26.4512 50.2269C29.6403 50.2269 32.4211 48.3965 33.896 45.6826V48.8682C33.896 49.4032 34.329 49.8397 34.8675 49.8397H43.0093C43.5443 49.8397 43.9808 49.4067 43.9808 48.8682V27.199C43.9808 26.664 43.5478 26.2275 43.0093 26.2275H33.7059C33.1709 26.2275 32.7344 26.6605 32.7344 27.199Z" fill="black"/>
<path d="M30.0486 17.5261C30.0486 13.9216 27.127 11 23.5261 11C19.9251 11 17 13.9216 17 17.5261C17 21.1306 19.9216 24.0522 23.5261 24.0522C27.1306 24.0522 30.0522 21.1306 30.0522 17.5261H30.0486Z" fill="black"/>
<path d="M45.0016 17.5261C45.0016 13.9216 42.08 11 38.4755 11C34.871 11 31.9494 13.9216 31.9494 17.5261C31.9494 21.1306 34.871 24.0522 38.4755 24.0522C42.08 24.0522 45.0016 21.1306 45.0016 17.5261Z" fill="black"/>
</svg>
